# xmcd
#
# Track frame offsets:
#	151
#	13421
#	30558
#	47693
#	63766
#	81936
#	94050
#	109462
#	124663
#	145467
#
# Disc length: 2131 seconds
#
# Revision: 1
# Processed by: cddbd v1.5.1PL0 Copyright (c) Steve Scherf et al.
# Submitted via: audiograbber 1.83.01
#
DISCID=8808510a
DTITLE=Adolfo Lee Mayo - Love At First Site
DYEAR=1998
DGENRE=Country
TTITLE0=Learn to Fly
TTITLE1=The Dreamer
TTITLE2=Jessie
TTITLE3=Baby It's Cold
TTITLE4=Back In Love Again
TTITLE5=She's My Baby
TTITLE6=The Man I Want To Be
TTITLE7=Different Way
TTITLE8=Love At First Site
TTITLE9=Whiskey Rain
EXTD=
EXTT0=
EXTT1=
EXTT2=
EXTT3=
EXTT4=
EXTT5=
EXTT6=
EXTT7=
EXTT8=
EXTT9=
PLAYORDER=
